<svg width="59" height="37" viewBox="0 0 59 37" fill="none" xmlns="http://www.w3.org/2000/svg">
<path d="M0.16748 2.63215V33.7044C0.16748 35.573 1.89727 36.7602 3.3218 35.8645L28.5462 19.9673C29.7794 19.1904 29.7794 17.1461 28.5462 16.3693L3.3218 0.472092C1.89727 -0.423646 0.16748 0.763529 0.16748 2.63215Z" fill="#61724E" stroke="#61724E" stroke-width="0.334899" stroke-miterlimit="10"/>
<path d="M0.16748 2.54567V32.5277C0.16748 34.3307 1.84369 35.4762 3.2241 34.6119L27.6672 19.2725C28.8622 18.523 28.8622 16.5504 27.6672 15.8008L3.2241 0.461404C1.84369 -0.402905 0.16748 0.742615 0.16748 2.54567Z" fill="#CCC6BB" stroke="#61724E" stroke-width="0.334899" stroke-miterlimit="10"/>
<path d="M28.6338 2.63215V33.7044C28.6338 35.573 30.3636 36.7602 31.7881 35.8645L57.0125 19.9673C58.2457 19.1904 58.2457 17.1461 57.0125 16.3693L31.7881 0.472092C30.3636 -0.423646 28.6338 0.763529 28.6338 2.63215Z" fill="#61724E" stroke="#394635" stroke-width="0.334899" stroke-miterlimit="10"/>
<path d="M28.6338 2.54567V32.5277C28.6338 34.3307 30.31 35.4762 31.6904 34.6119L56.1335 19.2725C57.3285 18.523 57.3285 16.5504 56.1335 15.8008L31.6904 0.461404C30.31 -0.402905 28.6338 0.742615 28.6338 2.54567Z" fill="#CCC6BB" stroke="#61724E" stroke-width="0.334899" stroke-miterlimit="10"/>
</svg>
