<svg width="285" height="178" viewBox="0 0 285 178" fill="none" xmlns="http://www.w3.org/2000/svg">
<path d="M0.820282 12.8941V165.109C0.820282 174.263 9.29406 180.078 16.2725 175.69L139.84 97.8143C145.881 94.0089 145.881 83.9942 139.84 80.1888L16.2725 2.31258C9.29406 -2.0754 0.820282 3.74026 0.820282 12.8941Z" fill="#61724E" stroke="#61724E" stroke-width="1.64058" stroke-miterlimit="10"/>
<path d="M0.820282 12.4705V159.344C0.820282 168.177 9.0316 173.789 15.7939 169.555L135.534 94.411C141.388 90.7391 141.388 81.0758 135.534 77.404L15.7939 2.26023C9.0316 -1.97379 0.820282 3.6378 0.820282 12.4705Z" fill="#CCC6BB" stroke="#61724E" stroke-width="1.64058" stroke-miterlimit="10"/>
<path d="M140.27 12.8941V165.109C140.27 174.263 148.743 180.078 155.722 175.69L279.289 97.8143C285.331 94.0089 285.331 83.9942 279.289 80.1888L155.722 2.31258C148.743 -2.0754 140.27 3.74026 140.27 12.8941Z" fill="#61724E" stroke="#394635" stroke-width="1.64058" stroke-miterlimit="10"/>
<path d="M140.27 12.4705V159.344C140.27 168.177 148.481 173.789 155.243 169.555L274.983 94.411C280.838 90.7391 280.838 81.0758 274.983 77.404L155.243 2.26023C148.481 -1.97379 140.27 3.6378 140.27 12.4705Z" fill="#CCC6BB" stroke="#61724E" stroke-width="1.64058" stroke-miterlimit="10"/>
</svg>
