<svg width="272" height="154" viewBox="0 0 272 154" fill="none" xmlns="http://www.w3.org/2000/svg">
<path d="M22.5 117.7C22.3667 119.1 21.8333 120.133 20.9 120.8C20.0333 121.467 19.0333 121.8 17.9 121.8C17.1667 121.8 16.4333 121.633 15.7 121.3C15.0333 121.033 14.4667 120.6 14 120C13.6 119.333 13.4333 118.533 13.5 117.6C14.2333 110.467 14.8667 103.033 15.4 95.3C15.9333 87.5 16.3667 79.5667 16.7 71.5C17.0333 63.4333 17.2667 55.5 17.4 47.7C17.4 46.5667 17.7667 45.6 18.5 44.8C19.3 43.9333 20.2667 43.5 21.4 43.5C23 43.5 24.1667 43.9333 24.9 44.8C25.7 45.6667 26.6667 47.4667 27.8 50.2C29.8667 55 32.1667 59.8667 34.7 64.8C37.2333 69.6667 39.7667 74.5333 42.3 79.4C44.9 84.2 47.2667 89.0333 49.4 93.9C50.3333 92.4333 51.6 90.4 53.2 87.8C54.8667 85.2 56.7 82.2667 58.7 79C60.7667 75.7333 62.8667 72.3667 65 68.9C67.2 65.3667 69.3 62 71.3 58.8C73.3 55.6 75.1 52.7333 76.7 50.2C78.3 47.6667 79.5333 45.7333 80.4 44.4C80.8667 43.6667 81.4333 43.1333 82.1 42.8C82.8333 42.4667 83.6 42.3 84.4 42.3C85.9333 42.3 87.0667 42.7667 87.8 43.7C88.6 44.6333 88.9667 45.5667 88.9 46.5L88 63.2C87.8 66.5333 87.6333 70.2 87.5 74.2C87.4333 78.2 87.3667 82.3 87.3 86.5C87.3 90.6333 87.3 94.6667 87.3 98.6C87.3 102.533 87.3333 106.167 87.4 109.5C87.4667 112.767 87.5333 115.467 87.6 117.6C87.6667 118.533 87.4667 119.333 87 120C86.6 120.6 86.0667 121.033 85.4 121.3C84.7333 121.633 84.0333 121.8 83.3 121.8C82.1667 121.8 81.1 121.467 80.1 120.8C79.1667 120.133 78.6667 119.1 78.6 117.7C78.4667 114.567 78.3667 110.833 78.3 106.5C78.3 102.167 78.3 97.5 78.3 92.5C78.3667 87.5 78.4667 82.4 78.6 77.2C78.8 72 79.0333 66.9667 79.3 62.1C76.3667 66.9667 73.4333 71.7 70.5 76.3C67.6333 80.9 64.7667 85.4667 61.9 90C59.1 94.4667 56.3333 98.9667 53.6 103.5C54.0667 104.833 54.1 105.933 53.7 106.8C53.3 107.667 52.7 108.333 51.9 108.8C51.1667 109.2 50.4 109.4 49.6 109.4C48.2667 109.4 47.2333 109.067 46.5 108.4C45.7667 107.667 45.2333 106.8 44.9 105.8C43.6333 102.267 42.2 98.7333 40.6 95.2C39 91.6667 37.3 88.2 35.5 84.8C33.7667 81.3333 32.0333 77.9667 30.3 74.7C28.6333 71.4333 27.0333 68.3 25.5 65.3C25.4333 69.9667 25.3 74.6333 25.1 79.3C24.9 83.9 24.6667 88.4333 24.4 92.9C24.2 97.3667 23.9333 101.667 23.6 105.8C23.2667 109.933 22.9 113.9 22.5 117.7ZM126.169 120C122.502 120 119.235 119.267 116.369 117.8C113.502 116.333 111.069 114.367 109.069 111.9C107.069 109.367 105.535 106.567 104.469 103.5C103.469 100.367 102.969 97.2 102.969 94C102.969 90.6 103.635 87.2333 104.969 83.9C106.369 80.5667 108.269 77.5 110.669 74.7C113.135 71.9 115.969 69.6667 119.169 68C122.369 66.3333 125.802 65.5 129.469 65.5C132.335 65.5 134.835 66.1 136.969 67.3C139.169 68.4333 140.869 70 142.069 72C143.335 74 143.969 76.3333 143.969 79C143.969 81.8 143.269 84.4667 141.869 87C140.469 89.4667 138.502 91.4667 135.969 93C132.569 95.3333 128.835 96.9667 124.769 97.9C120.769 98.7667 116.702 99.2667 112.569 99.4C113.102 101.333 113.969 103.233 115.169 105.1C116.369 106.967 117.902 108.533 119.769 109.8C121.702 111 123.969 111.6 126.569 111.6C129.035 111.6 131.402 110.9 133.669 109.5C136.002 108.033 138.002 106.367 139.669 104.5C140.069 103.967 140.502 103.6 140.969 103.4C141.502 103.2 142.002 103.1 142.469 103.1C143.269 103.1 144.002 103.3 144.669 103.7C145.335 104.1 145.869 104.633 146.269 105.3C146.669 105.967 146.869 106.7 146.869 107.5C146.935 108.033 146.869 108.567 146.669 109.1C146.469 109.567 146.135 110.033 145.669 110.5C143.202 113.167 140.302 115.433 136.969 117.3C133.702 119.1 130.102 120 126.169 120ZM112.169 91.2C114.835 91.0667 117.302 90.8667 119.569 90.6C121.835 90.2667 124.202 89.6 126.669 88.6C128.869 87.7333 130.802 86.5 132.469 84.9C134.135 83.2333 134.969 81.2333 134.969 78.9C134.969 77.9667 134.735 77.1333 134.269 76.4C133.869 75.6 133.235 74.9667 132.369 74.5C131.569 73.9667 130.502 73.7 129.169 73.7C127.035 73.7 125.002 74.2333 123.069 75.3C121.135 76.3667 119.402 77.7667 117.869 79.5C116.335 81.1667 115.069 83.0333 114.069 85.1C113.135 87.1667 112.502 89.2 112.169 91.2ZM161.294 68.3C161.494 67.4333 161.827 66.7667 162.294 66.3C162.76 65.8333 163.294 65.5 163.894 65.3C164.56 65.1 165.16 65 165.694 65C166.894 65 167.927 65.4 168.794 66.2C169.727 66.9333 170.194 67.8667 170.194 69C170.194 69.3333 170.127 70.0333 169.994 71.1C169.86 72.1 169.727 73.2 169.594 74.4C169.46 75.6 169.36 76.7333 169.294 77.8C171.494 74 174.06 70.9333 176.994 68.6C179.994 66.2667 183.36 65.1 187.094 65.1C192.827 65.1 197.127 67.2333 199.994 71.5C202.86 75.7 204.294 81.2667 204.294 88.2C204.294 90.7333 204.16 93.2333 203.894 95.7C203.627 98.1 203.294 100.5 202.894 102.9C202.494 105.233 202.16 107.567 201.894 109.9C201.627 112.167 201.494 114.4 201.494 116.6C201.494 118.067 201.027 119.133 200.094 119.8C199.16 120.467 198.127 120.8 196.994 120.8C195.794 120.8 194.694 120.467 193.694 119.8C192.76 119.133 192.294 118.1 192.294 116.7C192.294 114.233 192.427 111.867 192.694 109.6C192.96 107.267 193.294 104.967 193.694 102.7C194.094 100.367 194.427 98.0333 194.694 95.7C194.96 93.3 195.094 90.8667 195.094 88.4C195.094 84.4667 194.66 81.4333 193.794 79.3C192.927 77.1667 191.794 75.7 190.394 74.9C188.994 74.1 187.427 73.7 185.694 73.7C183.56 73.7 181.527 74.5333 179.594 76.2C177.66 77.8667 175.827 80.2 174.094 83.2C172.36 86.2 170.76 89.6667 169.294 93.6C169.294 98.6 169.227 102.933 169.094 106.6C168.96 110.2 168.827 113.467 168.694 116.4C168.627 117.667 168.127 118.7 167.194 119.5C166.26 120.233 165.127 120.6 163.794 120.6C161.86 120.6 160.56 119.767 159.894 118.1C159.227 116.433 158.894 114.5 158.894 112.3C158.894 110.633 158.927 108.967 158.994 107.3C159.06 105.567 159.194 103.833 159.394 102.1C159.66 100.3 159.96 98.5333 160.294 96.8C160.227 93 160.194 89.7 160.194 86.9C160.194 84.1 160.227 81.6333 160.294 79.5C160.36 77.3 160.46 75.3 160.594 73.5C160.794 71.7 161.027 69.9667 161.294 68.3ZM220.55 69.1C220.817 68.0333 221.317 67.2333 222.05 66.7C222.783 66.1667 223.65 65.9 224.65 65.9C225.783 65.9 226.75 66.1667 227.55 66.7C228.35 67.1667 228.917 67.8333 229.25 68.7C229.65 69.5 229.717 70.4 229.45 71.4C229.183 72.6667 228.85 74.4667 228.45 76.8C228.117 79.0667 227.817 81.4667 227.55 84C227.283 86.4667 227.15 88.7 227.15 90.7C227.15 94.8333 227.583 98.5 228.45 101.7C229.383 104.9 230.65 107.4 232.25 109.2C233.917 110.933 235.817 111.8 237.95 111.8C240.217 111.8 242.45 110.867 244.65 109C246.85 107.133 248.783 104.533 250.45 101.2C252.183 97.8 253.45 93.9 254.25 89.5C254.45 86.7667 254.583 84.3667 254.65 82.3C254.783 80.1667 254.85 78.1667 254.85 76.3C254.917 74.3667 254.95 72.3667 254.95 70.3C254.95 68.9 255.383 67.8333 256.25 67.1C257.183 66.3 258.283 65.9 259.55 65.9C261.417 65.9 262.65 66.5 263.25 67.7C263.917 68.9 264.25 71.2333 264.25 74.7C264.25 77.3667 264.15 80.0333 263.95 82.7C263.75 85.3667 263.45 87.7667 263.05 89.9C262.917 93.3667 262.783 96.1667 262.65 98.3C262.583 100.433 262.517 102.167 262.45 103.5C262.45 104.833 262.45 106.133 262.45 107.4C262.45 109.667 262.483 111.533 262.55 113C262.617 114.4 262.717 115.833 262.85 117.3C262.983 118.367 262.583 119.333 261.65 120.2C260.783 121.133 259.65 121.6 258.25 121.6C256.717 121.6 255.55 120.967 254.75 119.7C253.95 118.433 253.55 116.733 253.55 114.6C253.55 114 253.55 113.467 253.55 113C253.55 112.467 253.55 111.933 253.55 111.4C253.617 110.8 253.65 110.1 253.65 109.3C251.183 113.167 248.55 116 245.75 117.8C242.95 119.533 240.083 120.4 237.15 120.4C233.35 120.4 229.983 119.2 227.05 116.8C224.183 114.333 221.917 110.933 220.25 106.6C218.65 102.2 217.85 97.1 217.85 91.3C217.85 88.3 218.083 84.9 218.55 81.1C219.017 77.3 219.683 73.3 220.55 69.1Z" fill="#4C5D47"/>
<path d="M17.5 114.7C17.3667 116.1 16.8333 117.133 15.9 117.8C15.0333 118.467 14.0333 118.8 12.9 118.8C12.1667 118.8 11.4333 118.633 10.7 118.3C10.0333 118.033 9.46667 117.6 9 117C8.6 116.333 8.43333 115.533 8.5 114.6C9.23333 107.467 9.86667 100.033 10.4 92.3C10.9333 84.5 11.3667 76.5667 11.7 68.5C12.0333 60.4333 12.2667 52.5 12.4 44.7C12.4 43.5667 12.7667 42.6 13.5 41.8C14.3 40.9333 15.2667 40.5 16.4 40.5C18 40.5 19.1667 40.9333 19.9 41.8C20.7 42.6667 21.6667 44.4667 22.8 47.2C24.8667 52 27.1667 56.8667 29.7 61.8C32.2333 66.6667 34.7667 71.5333 37.3 76.4C39.9 81.2 42.2667 86.0333 44.4 90.9C45.3333 89.4333 46.6 87.4 48.2 84.8C49.8667 82.2 51.7 79.2667 53.7 76C55.7667 72.7333 57.8667 69.3667 60 65.9C62.2 62.3667 64.3 59 66.3 55.8C68.3 52.6 70.1 49.7333 71.7 47.2C73.3 44.6667 74.5333 42.7333 75.4 41.4C75.8667 40.6667 76.4333 40.1333 77.1 39.8C77.8333 39.4667 78.6 39.3 79.4 39.3C80.9333 39.3 82.0667 39.7667 82.8 40.7C83.6 41.6333 83.9667 42.5667 83.9 43.5L83 60.2C82.8 63.5333 82.6333 67.2 82.5 71.2C82.4333 75.2 82.3667 79.3 82.3 83.5C82.3 87.6333 82.3 91.6667 82.3 95.6C82.3 99.5333 82.3333 103.167 82.4 106.5C82.4667 109.767 82.5333 112.467 82.6 114.6C82.6667 115.533 82.4667 116.333 82 117C81.6 117.6 81.0667 118.033 80.4 118.3C79.7333 118.633 79.0333 118.8 78.3 118.8C77.1667 118.8 76.1 118.467 75.1 117.8C74.1667 117.133 73.6667 116.1 73.6 114.7C73.4667 111.567 73.3667 107.833 73.3 103.5C73.3 99.1667 73.3 94.5 73.3 89.5C73.3667 84.5 73.4667 79.4 73.6 74.2C73.8 69 74.0333 63.9667 74.3 59.1C71.3667 63.9667 68.4333 68.7 65.5 73.3C62.6333 77.9 59.7667 82.4667 56.9 87C54.1 91.4667 51.3333 95.9667 48.6 100.5C49.0667 101.833 49.1 102.933 48.7 103.8C48.3 104.667 47.7 105.333 46.9 105.8C46.1667 106.2 45.4 106.4 44.6 106.4C43.2667 106.4 42.2333 106.067 41.5 105.4C40.7667 104.667 40.2333 103.8 39.9 102.8C38.6333 99.2667 37.2 95.7333 35.6 92.2C34 88.6667 32.3 85.2 30.5 81.8C28.7667 78.3333 27.0333 74.9667 25.3 71.7C23.6333 68.4333 22.0333 65.3 20.5 62.3C20.4333 66.9667 20.3 71.6333 20.1 76.3C19.9 80.9 19.6667 85.4333 19.4 89.9C19.2 94.3667 18.9333 98.6667 18.6 102.8C18.2667 106.933 17.9 110.9 17.5 114.7ZM121.169 117C117.502 117 114.235 116.267 111.369 114.8C108.502 113.333 106.069 111.367 104.069 108.9C102.069 106.367 100.535 103.567 99.4688 100.5C98.4688 97.3667 97.9688 94.2 97.9688 91C97.9688 87.6 98.6354 84.2333 99.9688 80.9C101.369 77.5667 103.269 74.5 105.669 71.7C108.135 68.9 110.969 66.6667 114.169 65C117.369 63.3333 120.802 62.5 124.469 62.5C127.335 62.5 129.835 63.1 131.969 64.3C134.169 65.4333 135.869 67 137.069 69C138.335 71 138.969 73.3333 138.969 76C138.969 78.8 138.269 81.4667 136.869 84C135.469 86.4667 133.502 88.4667 130.969 90C127.569 92.3333 123.835 93.9667 119.769 94.9C115.769 95.7667 111.702 96.2667 107.569 96.4C108.102 98.3333 108.969 100.233 110.169 102.1C111.369 103.967 112.902 105.533 114.769 106.8C116.702 108 118.969 108.6 121.569 108.6C124.035 108.6 126.402 107.9 128.669 106.5C131.002 105.033 133.002 103.367 134.669 101.5C135.069 100.967 135.502 100.6 135.969 100.4C136.502 100.2 137.002 100.1 137.469 100.1C138.269 100.1 139.002 100.3 139.669 100.7C140.335 101.1 140.869 101.633 141.269 102.3C141.669 102.967 141.869 103.7 141.869 104.5C141.935 105.033 141.869 105.567 141.669 106.1C141.469 106.567 141.135 107.033 140.669 107.5C138.202 110.167 135.302 112.433 131.969 114.3C128.702 116.1 125.102 117 121.169 117ZM107.169 88.2C109.835 88.0667 112.302 87.8667 114.569 87.6C116.835 87.2667 119.202 86.6 121.669 85.6C123.869 84.7333 125.802 83.5 127.469 81.9C129.135 80.2333 129.969 78.2333 129.969 75.9C129.969 74.9667 129.735 74.1333 129.269 73.4C128.869 72.6 128.235 71.9667 127.369 71.5C126.569 70.9667 125.502 70.7 124.169 70.7C122.035 70.7 120.002 71.2333 118.069 72.3C116.135 73.3667 114.402 74.7667 112.869 76.5C111.335 78.1667 110.069 80.0333 109.069 82.1C108.135 84.1667 107.502 86.2 107.169 88.2ZM156.294 65.3C156.494 64.4333 156.827 63.7667 157.294 63.3C157.76 62.8333 158.294 62.5 158.894 62.3C159.56 62.1 160.16 62 160.694 62C161.894 62 162.927 62.4 163.794 63.2C164.727 63.9333 165.194 64.8667 165.194 66C165.194 66.3333 165.127 67.0333 164.994 68.1C164.86 69.1 164.727 70.2 164.594 71.4C164.46 72.6 164.36 73.7333 164.294 74.8C166.494 71 169.06 67.9333 171.994 65.6C174.994 63.2667 178.36 62.1 182.094 62.1C187.827 62.1 192.127 64.2333 194.994 68.5C197.86 72.7 199.294 78.2667 199.294 85.2C199.294 87.7333 199.16 90.2333 198.894 92.7C198.627 95.1 198.294 97.5 197.894 99.9C197.494 102.233 197.16 104.567 196.894 106.9C196.627 109.167 196.494 111.4 196.494 113.6C196.494 115.067 196.027 116.133 195.094 116.8C194.16 117.467 193.127 117.8 191.994 117.8C190.794 117.8 189.694 117.467 188.694 116.8C187.76 116.133 187.294 115.1 187.294 113.7C187.294 111.233 187.427 108.867 187.694 106.6C187.96 104.267 188.294 101.967 188.694 99.7C189.094 97.3667 189.427 95.0333 189.694 92.7C189.96 90.3 190.094 87.8667 190.094 85.4C190.094 81.4667 189.66 78.4333 188.794 76.3C187.927 74.1667 186.794 72.7 185.394 71.9C183.994 71.1 182.427 70.7 180.694 70.7C178.56 70.7 176.527 71.5333 174.594 73.2C172.66 74.8667 170.827 77.2 169.094 80.2C167.36 83.2 165.76 86.6667 164.294 90.6C164.294 95.6 164.227 99.9333 164.094 103.6C163.96 107.2 163.827 110.467 163.694 113.4C163.627 114.667 163.127 115.7 162.194 116.5C161.26 117.233 160.127 117.6 158.794 117.6C156.86 117.6 155.56 116.767 154.894 115.1C154.227 113.433 153.894 111.5 153.894 109.3C153.894 107.633 153.927 105.967 153.994 104.3C154.06 102.567 154.194 100.833 154.394 99.1C154.66 97.3 154.96 95.5333 155.294 93.8C155.227 90 155.194 86.7 155.194 83.9C155.194 81.1 155.227 78.6333 155.294 76.5C155.36 74.3 155.46 72.3 155.594 70.5C155.794 68.7 156.027 66.9667 156.294 65.3ZM215.55 66.1C215.817 65.0333 216.317 64.2333 217.05 63.7C217.783 63.1667 218.65 62.9 219.65 62.9C220.783 62.9 221.75 63.1667 222.55 63.7C223.35 64.1667 223.917 64.8333 224.25 65.7C224.65 66.5 224.717 67.4 224.45 68.4C224.183 69.6667 223.85 71.4667 223.45 73.8C223.117 76.0667 222.817 78.4667 222.55 81C222.283 83.4667 222.15 85.7 222.15 87.7C222.15 91.8333 222.583 95.5 223.45 98.7C224.383 101.9 225.65 104.4 227.25 106.2C228.917 107.933 230.817 108.8 232.95 108.8C235.217 108.8 237.45 107.867 239.65 106C241.85 104.133 243.783 101.533 245.45 98.2C247.183 94.8 248.45 90.9 249.25 86.5C249.45 83.7667 249.583 81.3667 249.65 79.3C249.783 77.1667 249.85 75.1667 249.85 73.3C249.917 71.3667 249.95 69.3667 249.95 67.3C249.95 65.9 250.383 64.8333 251.25 64.1C252.183 63.3 253.283 62.9 254.55 62.9C256.417 62.9 257.65 63.5 258.25 64.7C258.917 65.9 259.25 68.2333 259.25 71.7C259.25 74.3667 259.15 77.0333 258.95 79.7C258.75 82.3667 258.45 84.7667 258.05 86.9C257.917 90.3667 257.783 93.1667 257.65 95.3C257.583 97.4333 257.517 99.1667 257.45 100.5C257.45 101.833 257.45 103.133 257.45 104.4C257.45 106.667 257.483 108.533 257.55 110C257.617 111.4 257.717 112.833 257.85 114.3C257.983 115.367 257.583 116.333 256.65 117.2C255.783 118.133 254.65 118.6 253.25 118.6C251.717 118.6 250.55 117.967 249.75 116.7C248.95 115.433 248.55 113.733 248.55 111.6C248.55 111 248.55 110.467 248.55 110C248.55 109.467 248.55 108.933 248.55 108.4C248.617 107.8 248.65 107.1 248.65 106.3C246.183 110.167 243.55 113 240.75 114.8C237.95 116.533 235.083 117.4 232.15 117.4C228.35 117.4 224.983 116.2 222.05 113.8C219.183 111.333 216.917 107.933 215.25 103.6C213.65 99.2 212.85 94.1 212.85 88.3C212.85 85.3 213.083 81.9 213.55 78.1C214.017 74.3 214.683 70.3 215.55 66.1Z" fill="#7E9B76"/>
</svg>
