<svg width="75" height="43" viewBox="0 0 75 43" fill="none" xmlns="http://www.w3.org/2000/svg">
<path d="M6.20415 32.1931C6.16739 32.5791 6.02033 32.864 5.76298 33.0479C5.524 33.2317 5.24827 33.3236 4.93577 33.3236C4.73356 33.3236 4.53136 33.2776 4.32915 33.1857C4.14533 33.1122 3.98908 32.9927 3.8604 32.8273C3.75011 32.6434 3.70415 32.4229 3.72253 32.1655C3.92474 30.1986 4.09937 28.149 4.24643 26.0166C4.39349 23.8659 4.51298 21.6784 4.60489 19.4541C4.6968 17.2298 4.76114 15.0423 4.7979 12.8916C4.7979 12.5791 4.899 12.3126 5.10121 12.092C5.3218 11.853 5.58834 11.7335 5.90084 11.7335C6.34202 11.7335 6.66371 11.853 6.86592 12.092C7.0865 12.3309 7.35305 12.8273 7.66555 13.5809C8.2354 14.9045 8.86959 16.2464 9.56812 17.6067C10.2667 18.9486 10.9652 20.2905 11.6637 21.6324C12.3806 22.9559 13.0332 24.2887 13.6214 25.6306C13.8788 25.2262 14.228 24.6655 14.6692 23.9486C15.1288 23.2317 15.6343 22.4229 16.1858 21.5221C16.7556 20.6214 17.3347 19.6931 17.9229 18.7372C18.5295 17.7629 19.1086 16.8346 19.66 15.9523C20.2115 15.0699 20.7078 14.2795 21.149 13.5809C21.5902 12.8824 21.9303 12.3493 22.1692 11.9817C22.2979 11.7795 22.4542 11.6324 22.638 11.5405C22.8402 11.4486 23.0516 11.4026 23.2722 11.4026C23.695 11.4026 24.0075 11.5313 24.2097 11.7887C24.4303 12.046 24.5314 12.3034 24.513 12.5607L24.2648 17.1655C24.2097 18.0846 24.1637 19.0957 24.1269 20.1986C24.1086 21.3015 24.0902 22.432 24.0718 23.5901C24.0718 24.7298 24.0718 25.842 24.0718 26.9265C24.0718 28.0111 24.081 29.0129 24.0994 29.932C24.1178 30.8328 24.1361 31.5773 24.1545 32.1655C24.1729 32.4229 24.1178 32.6434 23.9891 32.8273C23.8788 32.9927 23.7317 33.1122 23.5479 33.1857C23.3641 33.2776 23.1711 33.3236 22.9689 33.3236C22.6564 33.3236 22.3622 33.2317 22.0865 33.0479C21.8292 32.864 21.6913 32.5791 21.6729 32.1931C21.6361 31.3291 21.6086 30.2997 21.5902 29.1048C21.5902 27.91 21.5902 26.6232 21.5902 25.2446C21.6086 23.8659 21.6361 22.4596 21.6729 21.0258C21.728 19.592 21.7924 18.2041 21.8659 16.8622C21.0571 18.2041 20.2483 19.5093 19.4394 20.7776C18.649 22.046 17.8586 23.3052 17.0681 24.5552C16.2961 25.7868 15.5332 27.0276 14.7795 28.2776C14.9082 28.6453 14.9174 28.9486 14.8071 29.1876C14.6968 29.4265 14.5314 29.6104 14.3108 29.739C14.1086 29.8493 13.8972 29.9045 13.6766 29.9045C13.3089 29.9045 13.024 29.8126 12.8218 29.6287C12.6196 29.4265 12.4725 29.1876 12.3806 28.9118C12.0314 27.9376 11.6361 26.9633 11.195 25.989C10.7538 25.0148 10.285 24.0589 9.78871 23.1214C9.31077 22.1655 8.83283 21.2372 8.35489 20.3365C7.89533 19.4357 7.45415 18.5718 7.03136 17.7445C7.01298 19.0313 6.97621 20.3181 6.92106 21.6048C6.86592 22.8732 6.80158 24.1232 6.72805 25.3548C6.6729 26.5865 6.59937 27.7721 6.50746 28.9118C6.41555 30.0515 6.31445 31.1453 6.20415 32.1931ZM34.7893 32.8273C33.7783 32.8273 32.8775 32.6251 32.0871 32.2207C31.2966 31.8162 30.6257 31.274 30.0742 30.5938C29.5227 29.8953 29.0999 29.1232 28.8058 28.2776C28.5301 27.4137 28.3922 26.5405 28.3922 25.6582C28.3922 24.7207 28.576 23.7923 28.9437 22.8732C29.3297 21.9541 29.8536 21.1085 30.5154 20.3365C31.1955 19.5644 31.9768 18.9486 32.8591 18.489C33.7415 18.0295 34.6882 17.7997 35.6992 17.7997C36.4897 17.7997 37.179 17.9651 37.7672 18.296C38.3738 18.6085 38.8426 19.0405 39.1735 19.592C39.5227 20.1434 39.6974 20.7868 39.6974 21.5221C39.6974 22.2942 39.5044 23.0295 39.1183 23.728C38.7323 24.4082 38.19 24.9596 37.4915 25.3824C36.554 26.0258 35.5246 26.4762 34.4033 26.7335C33.3003 26.9725 32.179 27.1104 31.0393 27.1471C31.1863 27.6802 31.4253 28.2041 31.7562 28.7188C32.0871 29.2335 32.5099 29.6655 33.0246 30.0148C33.5577 30.3457 34.1827 30.5111 34.8996 30.5111C35.5797 30.5111 36.2323 30.3181 36.8573 29.932C37.5007 29.5276 38.0522 29.0681 38.5117 28.5534C38.622 28.4063 38.7415 28.3052 38.8702 28.2501C39.0172 28.1949 39.1551 28.1673 39.2838 28.1673C39.5044 28.1673 39.7066 28.2225 39.8904 28.3328C40.0742 28.4431 40.2213 28.5901 40.3316 28.774C40.4419 28.9578 40.497 29.16 40.497 29.3806C40.5154 29.5276 40.497 29.6747 40.4419 29.8218C40.3867 29.9504 40.2948 30.0791 40.1661 30.2078C39.486 30.9431 38.6863 31.5681 37.7672 32.0828C36.8665 32.5791 35.8738 32.8273 34.7893 32.8273ZM30.929 24.8861C31.6643 24.8493 32.3444 24.7942 32.9694 24.7207C33.5944 24.6287 34.247 24.4449 34.9272 24.1692C35.5338 23.9302 36.0669 23.5901 36.5264 23.149C36.986 22.6894 37.2158 22.1379 37.2158 21.4946C37.2158 21.2372 37.1514 21.0074 37.0227 20.8052C36.9124 20.5846 36.7378 20.41 36.4988 20.2813C36.2783 20.1343 35.9841 20.0607 35.6165 20.0607C35.0283 20.0607 34.4676 20.2078 33.9345 20.5019C33.4014 20.796 32.9235 21.182 32.5007 21.66C32.0779 22.1195 31.7286 22.6343 31.4529 23.2041C31.1955 23.774 31.0209 24.3346 30.929 24.8861ZM44.4745 18.5718C44.5296 18.3328 44.6215 18.149 44.7502 18.0203C44.8789 17.8916 45.026 17.7997 45.1914 17.7445C45.3752 17.6894 45.5407 17.6618 45.6877 17.6618C46.0186 17.6618 46.3035 17.7721 46.5425 17.9927C46.7999 18.1949 46.9285 18.4523 46.9285 18.7648C46.9285 18.8567 46.9101 19.0497 46.8734 19.3438C46.8366 19.6195 46.7999 19.9229 46.7631 20.2537C46.7263 20.5846 46.6987 20.8971 46.6804 21.1912C47.287 20.1434 47.9947 19.2979 48.8035 18.6545C49.6307 18.0111 50.559 17.6894 51.5885 17.6894C53.1693 17.6894 54.355 18.2776 55.1454 19.4541C55.9359 20.6122 56.3311 22.1471 56.3311 24.0589C56.3311 24.7574 56.2943 25.4468 56.2208 26.1269C56.1473 26.7887 56.0554 27.4504 55.9451 28.1122C55.8348 28.7556 55.7429 29.399 55.6693 30.0423C55.5958 30.6673 55.559 31.2832 55.559 31.8898C55.559 32.2942 55.4304 32.5883 55.173 32.7721C54.9157 32.9559 54.6307 33.0479 54.3182 33.0479C53.9874 33.0479 53.684 32.9559 53.4083 32.7721C53.151 32.5883 53.0223 32.3034 53.0223 31.9173C53.0223 31.2372 53.059 30.5846 53.1326 29.9596C53.2061 29.3162 53.298 28.682 53.4083 28.057C53.5186 27.4137 53.6105 26.7703 53.684 26.1269C53.7576 25.4651 53.7943 24.7942 53.7943 24.114C53.7943 23.0295 53.6749 22.1931 53.4359 21.6048C53.1969 21.0166 52.8844 20.6122 52.4984 20.3916C52.1124 20.171 51.6804 20.0607 51.2024 20.0607C50.6142 20.0607 50.0535 20.2905 49.5204 20.7501C48.9874 21.2096 48.4818 21.853 48.0039 22.6802C47.526 23.5074 47.0848 24.4633 46.6804 25.5479C46.6804 26.9265 46.662 28.1214 46.6252 29.1324C46.5885 30.1251 46.5517 31.0258 46.5149 31.8346C46.4965 32.1839 46.3587 32.4688 46.1013 32.6894C45.844 32.8916 45.5315 32.9927 45.1638 32.9927C44.6307 32.9927 44.2723 32.7629 44.0885 32.3034C43.9046 31.8438 43.8127 31.3107 43.8127 30.7041C43.8127 30.2445 43.8219 29.785 43.8403 29.3254C43.8587 28.8475 43.8954 28.3695 43.9506 27.8916C44.0241 27.3953 44.1068 26.9082 44.1987 26.4302C44.1804 25.3824 44.1712 24.4725 44.1712 23.7004C44.1712 22.9284 44.1804 22.2482 44.1987 21.66C44.2171 21.0534 44.2447 20.5019 44.2815 20.0056C44.3366 19.5093 44.401 19.0313 44.4745 18.5718ZM60.8135 18.7923C60.8871 18.4982 61.0249 18.2776 61.2271 18.1306C61.4293 17.9835 61.6683 17.91 61.944 17.91C62.2565 17.91 62.5231 17.9835 62.7437 18.1306C62.9643 18.2593 63.1205 18.4431 63.2124 18.6821C63.3227 18.9026 63.3411 19.1508 63.2676 19.4265C63.194 19.7758 63.1021 20.2721 62.9918 20.9155C62.8999 21.5405 62.8172 22.2023 62.7437 22.9008C62.6701 23.5809 62.6334 24.1968 62.6334 24.7482C62.6334 25.8879 62.7529 26.899 62.9918 27.7813C63.2492 28.6637 63.5984 29.353 64.0396 29.8493C64.4992 30.3273 65.0231 30.5662 65.6113 30.5662C66.2363 30.5662 66.8521 30.3089 67.4587 29.7942C68.0654 29.2795 68.5984 28.5626 69.058 27.6434C69.5359 26.7059 69.8852 25.6306 70.1058 24.4173C70.1609 23.6637 70.1977 23.0019 70.2161 22.4321C70.2529 21.8438 70.2712 21.2923 70.2712 20.7776C70.2896 20.2445 70.2988 19.6931 70.2988 19.1232C70.2988 18.7372 70.4183 18.4431 70.6573 18.2409C70.9146 18.0203 71.2179 17.91 71.5672 17.91C72.0819 17.91 72.422 18.0754 72.5874 18.4063C72.7712 18.7372 72.8632 19.3806 72.8632 20.3365C72.8632 21.0718 72.8356 21.807 72.7804 22.5423C72.7253 23.2776 72.6426 23.9394 72.5323 24.5276C72.4955 25.4835 72.4587 26.2556 72.422 26.8438C72.4036 27.4321 72.3852 27.91 72.3668 28.2776C72.3668 28.6453 72.3668 29.0037 72.3668 29.353C72.3668 29.978 72.376 30.4927 72.3944 30.8971C72.4128 31.2832 72.4404 31.6784 72.4771 32.0828C72.5139 32.3769 72.4036 32.6434 72.1462 32.8824C71.9073 33.1398 71.5948 33.2684 71.2087 33.2684C70.7859 33.2684 70.4643 33.0938 70.2437 32.7445C70.0231 32.3953 69.9128 31.9265 69.9128 31.3383C69.9128 31.1729 69.9128 31.0258 69.9128 30.8971C69.9128 30.7501 69.9128 30.603 69.9128 30.4559C69.9312 30.2905 69.9404 30.0975 69.9404 29.8769C69.2602 30.9431 68.5341 31.7243 67.7621 32.2207C66.99 32.6986 66.1996 32.9376 65.3907 32.9376C64.3429 32.9376 63.4146 32.6067 62.6058 31.9449C61.8154 31.2648 61.1904 30.3273 60.7308 29.1324C60.2896 27.9192 60.069 26.5129 60.069 24.9137C60.069 24.0865 60.1334 23.149 60.2621 22.1012C60.3907 21.0534 60.5746 19.9504 60.8135 18.7923Z" fill="#4C5D47"/>
<path d="M4.82537 31.3658C4.7886 31.7518 4.64154 32.0368 4.38419 32.2206C4.14522 32.4044 3.86949 32.4963 3.55699 32.4963C3.35478 32.4963 3.15257 32.4504 2.95037 32.3585C2.76654 32.2849 2.61029 32.1654 2.48162 32C2.37132 31.8162 2.32537 31.5956 2.34375 31.3382C2.54596 29.3713 2.72059 27.3217 2.86765 25.1893C3.01471 23.0386 3.13419 20.8511 3.2261 18.6268C3.31801 16.4026 3.38235 14.2151 3.41912 12.0643C3.41912 11.7518 3.52022 11.4853 3.72243 11.2647C3.94301 11.0257 4.20956 10.9062 4.52206 10.9062C4.96324 10.9062 5.28493 11.0257 5.48713 11.2647C5.70772 11.5037 5.97426 12 6.28676 12.7537C6.85662 14.0772 7.49081 15.4191 8.18934 16.7794C8.88787 18.1213 9.5864 19.4632 10.2849 20.8051C11.0018 22.1287 11.6544 23.4614 12.2426 24.8033C12.5 24.3989 12.8493 23.8382 13.2904 23.1213C13.75 22.4044 14.2555 21.5956 14.807 20.6949C15.3768 19.7941 15.9559 18.8658 16.5441 17.9099C17.1507 16.9357 17.7298 16.0074 18.2813 15.125C18.8327 14.2426 19.329 13.4522 19.7702 12.7537C20.2114 12.0551 20.5515 11.5221 20.7904 11.1544C20.9191 10.9522 21.0754 10.8051 21.2592 10.7132C21.4614 10.6213 21.6728 10.5754 21.8934 10.5754C22.3162 10.5754 22.6287 10.704 22.8309 10.9614C23.0515 11.2188 23.1526 11.4761 23.1342 11.7335L22.886 16.3382C22.8309 17.2574 22.7849 18.2684 22.7482 19.3713C22.7298 20.4743 22.7114 21.6048 22.693 22.7629C22.693 23.9026 22.693 25.0147 22.693 26.0993C22.693 27.1838 22.7022 28.1857 22.7206 29.1048C22.739 30.0055 22.7574 30.75 22.7757 31.3382C22.7941 31.5956 22.739 31.8162 22.6103 32C22.5 32.1654 22.3529 32.2849 22.1691 32.3585C21.9853 32.4504 21.7923 32.4963 21.5901 32.4963C21.2776 32.4963 20.9835 32.4044 20.7077 32.2206C20.4504 32.0368 20.3125 31.7518 20.2941 31.3658C20.2574 30.5018 20.2298 29.4724 20.2114 28.2776C20.2114 27.0827 20.2114 25.796 20.2114 24.4173C20.2298 23.0386 20.2574 21.6324 20.2941 20.1985C20.3493 18.7647 20.4136 17.3768 20.4871 16.0349C19.6783 17.3768 18.8695 18.682 18.0607 19.9504C17.2702 21.2187 16.4798 22.4779 15.6893 23.7279C14.9173 24.9596 14.1544 26.2004 13.4007 27.4504C13.5294 27.818 13.5386 28.1213 13.4283 28.3603C13.318 28.5993 13.1526 28.7831 12.932 28.9118C12.7298 29.0221 12.5184 29.0772 12.2978 29.0772C11.9301 29.0772 11.6452 28.9853 11.443 28.8015C11.2408 28.5993 11.0937 28.3603 11.0018 28.0846C10.6526 27.1103 10.2574 26.136 9.81618 25.1618C9.375 24.1875 8.90625 23.2316 8.40993 22.2941C7.93199 21.3382 7.45404 20.4099 6.9761 19.5092C6.51654 18.6085 6.07537 17.7445 5.65257 16.9173C5.63419 18.204 5.59743 19.4908 5.54228 20.7776C5.48713 22.046 5.42279 23.296 5.34926 24.5276C5.29412 25.7592 5.22059 26.9449 5.12868 28.0846C5.03676 29.2243 4.93566 30.318 4.82537 31.3658ZM33.4105 32C32.3995 32 31.4987 31.7978 30.7083 31.3934C29.9179 30.989 29.2469 30.4467 28.6954 29.7665C28.144 29.068 27.7212 28.296 27.427 27.4504C27.1513 26.5864 27.0134 25.7132 27.0134 24.8309C27.0134 23.8934 27.1973 22.9651 27.5649 22.046C27.9509 21.1268 28.4748 20.2813 29.1366 19.5092C29.8167 18.7371 30.598 18.1213 31.4804 17.6618C32.3627 17.2022 33.3094 16.9724 34.3204 16.9724C35.1109 16.9724 35.8002 17.1379 36.3884 17.4688C36.9951 17.7812 37.4638 18.2132 37.7947 18.7647C38.144 19.3162 38.3186 19.9596 38.3186 20.6949C38.3186 21.4669 38.1256 22.2022 37.7395 22.9007C37.3535 23.5809 36.8112 24.1324 36.1127 24.5551C35.1752 25.1985 34.1458 25.6489 33.0245 25.9062C31.9215 26.1452 30.8002 26.2831 29.6605 26.3199C29.8076 26.8529 30.0465 27.3768 30.3774 27.8915C30.7083 28.4062 31.1311 28.8382 31.6458 29.1875C32.1789 29.5184 32.8039 29.6838 33.5208 29.6838C34.2009 29.6838 34.8535 29.4908 35.4785 29.1048C36.1219 28.7004 36.6734 28.2408 37.1329 27.7261C37.2432 27.579 37.3627 27.4779 37.4914 27.4228C37.6384 27.3676 37.7763 27.3401 37.905 27.3401C38.1256 27.3401 38.3278 27.3952 38.5116 27.5055C38.6954 27.6158 38.8425 27.7629 38.9528 27.9467C39.0631 28.1305 39.1182 28.3327 39.1182 28.5533C39.1366 28.7004 39.1182 28.8474 39.0631 28.9945C39.0079 29.1232 38.916 29.2518 38.7873 29.3805C38.1072 30.1158 37.3076 30.7408 36.3884 31.2555C35.4877 31.7518 34.4951 32 33.4105 32ZM29.5502 24.0588C30.2855 24.0221 30.9656 23.9669 31.5906 23.8934C32.2156 23.8015 32.8682 23.6176 33.5484 23.3419C34.155 23.1029 34.6881 22.7629 35.1476 22.3217C35.6072 21.8621 35.837 21.3107 35.837 20.6673C35.837 20.4099 35.7726 20.1801 35.644 19.9779C35.5337 19.7574 35.359 19.5827 35.1201 19.454C34.8995 19.307 34.6054 19.2335 34.2377 19.2335C33.6495 19.2335 33.0888 19.3805 32.5557 19.6746C32.0226 19.9687 31.5447 20.3548 31.1219 20.8327C30.6991 21.2923 30.3498 21.807 30.0741 22.3768C29.8167 22.9467 29.6421 23.5074 29.5502 24.0588ZM43.0957 17.7445C43.1508 17.5055 43.2428 17.3217 43.3714 17.193C43.5001 17.0643 43.6472 16.9724 43.8126 16.9173C43.9964 16.8621 44.1619 16.8346 44.3089 16.8346C44.6398 16.8346 44.9247 16.9449 45.1637 17.1654C45.4211 17.3676 45.5497 17.625 45.5497 17.9375C45.5497 18.0294 45.5314 18.2224 45.4946 18.5165C45.4578 18.7923 45.4211 19.0956 45.3843 19.4265C45.3475 19.7574 45.32 20.0699 45.3016 20.364C45.9082 19.3162 46.6159 18.4706 47.4247 17.8272C48.2519 17.1838 49.1803 16.8621 50.2097 16.8621C51.7906 16.8621 52.9762 17.4504 53.7667 18.6268C54.5571 19.7849 54.9523 21.3199 54.9523 23.2316C54.9523 23.9301 54.9156 24.6195 54.842 25.2996C54.7685 25.9614 54.6766 26.6232 54.5663 27.2849C54.456 27.9283 54.3641 28.5717 54.2906 29.2151C54.217 29.8401 54.1803 30.4559 54.1803 31.0625C54.1803 31.4669 54.0516 31.761 53.7942 31.9449C53.5369 32.1287 53.2519 32.2206 52.9394 32.2206C52.6086 32.2206 52.3053 32.1287 52.0295 31.9449C51.7722 31.761 51.6435 31.4761 51.6435 31.0901C51.6435 30.4099 51.6803 29.7574 51.7538 29.1324C51.8273 28.489 51.9192 27.8548 52.0295 27.2298C52.1398 26.5864 52.2317 25.943 52.3053 25.2996C52.3788 24.6379 52.4156 23.9669 52.4156 23.2868C52.4156 22.2022 52.2961 21.3658 52.0571 20.7776C51.8181 20.1893 51.5056 19.7849 51.1196 19.5643C50.7336 19.3437 50.3016 19.2335 49.8236 19.2335C49.2354 19.2335 48.6747 19.4632 48.1417 19.9228C47.6086 20.3824 47.1031 21.0257 46.6251 21.8529C46.1472 22.6801 45.706 23.636 45.3016 24.7206C45.3016 26.0993 45.2832 27.2941 45.2464 28.3051C45.2097 29.2978 45.1729 30.1985 45.1361 31.0074C45.1178 31.3566 44.9799 31.6415 44.7225 31.8621C44.4652 32.0643 44.1527 32.1654 43.785 32.1654C43.2519 32.1654 42.8935 31.9357 42.7097 31.4761C42.5258 31.0165 42.4339 30.4835 42.4339 29.8768C42.4339 29.4173 42.4431 28.9577 42.4615 28.4982C42.4799 28.0202 42.5167 27.5423 42.5718 27.0643C42.6453 26.568 42.7281 26.0809 42.82 25.6029C42.8016 24.5551 42.7924 23.6452 42.7924 22.8732C42.7924 22.1011 42.8016 21.421 42.82 20.8327C42.8383 20.2261 42.8659 19.6746 42.9027 19.1783C42.9578 18.682 43.0222 18.204 43.0957 17.7445ZM59.4347 17.9651C59.5083 17.671 59.6461 17.4504 59.8483 17.3033C60.0505 17.1562 60.2895 17.0827 60.5653 17.0827C60.8778 17.0827 61.1443 17.1562 61.3649 17.3033C61.5855 17.432 61.7417 17.6158 61.8336 17.8548C61.9439 18.0754 61.9623 18.3235 61.8888 18.5993C61.8153 18.9485 61.7233 19.4449 61.613 20.0882C61.5211 20.7132 61.4384 21.375 61.3649 22.0735C61.2914 22.7537 61.2546 23.3695 61.2546 23.921C61.2546 25.0607 61.3741 26.0717 61.613 26.954C61.8704 27.8364 62.2197 28.5257 62.6608 29.0221C63.1204 29.5 63.6443 29.739 64.2325 29.739C64.8575 29.739 65.4733 29.4816 66.08 28.9669C66.6866 28.4522 67.2197 27.7353 67.6792 26.8162C68.1572 25.8787 68.5064 24.8033 68.727 23.5901C68.7822 22.8364 68.8189 22.1746 68.8373 21.6048C68.8741 21.0165 68.8925 20.4651 68.8925 19.9504C68.9108 19.4173 68.92 18.8658 68.92 18.296C68.92 17.9099 69.0395 17.6158 69.2785 17.4136C69.5358 17.193 69.8391 17.0827 70.1884 17.0827C70.7031 17.0827 71.0432 17.2482 71.2086 17.579C71.3925 17.9099 71.4844 18.5533 71.4844 19.5092C71.4844 20.2445 71.4568 20.9798 71.4016 21.7151C71.3465 22.4504 71.2638 23.1121 71.1535 23.7004C71.1167 24.6562 71.08 25.4283 71.0432 26.0165C71.0248 26.6048 71.0064 27.0827 70.988 27.4504C70.988 27.818 70.988 28.1765 70.988 28.5257C70.988 29.1507 70.9972 29.6654 71.0156 30.0699C71.034 30.4559 71.0616 30.8511 71.0983 31.2555C71.1351 31.5496 71.0248 31.8162 70.7675 32.0551C70.5285 32.3125 70.216 32.4412 69.83 32.4412C69.4072 32.4412 69.0855 32.2665 68.8649 31.9173C68.6443 31.568 68.534 31.0993 68.534 30.511C68.534 30.3456 68.534 30.1985 68.534 30.0699C68.534 29.9228 68.534 29.7757 68.534 29.6287C68.5524 29.4632 68.5616 29.2702 68.5616 29.0496C67.8814 30.1158 67.1553 30.8971 66.3833 31.3934C65.6112 31.8713 64.8208 32.1103 64.0119 32.1103C62.9641 32.1103 62.0358 31.7794 61.227 31.1176C60.4366 30.4375 59.8116 29.5 59.352 28.3051C58.9108 27.0919 58.6903 25.6857 58.6903 24.0864C58.6903 23.2592 58.7546 22.3217 58.8833 21.2739C59.0119 20.2261 59.1958 19.1232 59.4347 17.9651Z" fill="#7E9B76"/>
</svg>
