<svg width="127" height="135" viewBox="0 0 127 135" fill="none" xmlns="http://www.w3.org/2000/svg">
<path d="M126.774 68.5301C126.774 104.843 98.3944 134.28 63.3868 134.28C28.3793 134.28 0 104.843 0 68.5301C0 32.2174 28.3793 2.78015 63.3868 2.78015C98.3944 2.78015 126.774 32.2174 126.774 68.5301Z" fill="#8A887F"/>
<ellipse cx="63.5259" cy="65.7499" rx="62.4138" ry="65.7499" fill="#E3DCD0"/>
<path d="M63.665 3.47546C95.7922 3.47546 121.909 31.1908 121.909 65.4716C121.909 99.7525 95.7923 127.469 63.665 127.469C31.5379 127.469 5.42188 99.7524 5.42188 65.4716C5.42208 31.1909 31.538 3.47556 63.665 3.47546Z" stroke="#353431" stroke-width="1.39006"/>
<rect x="35.5855" y="23.0751" width="16.9588" height="85.6278" rx="5.28224" fill="#61724E" stroke="#394635" stroke-width="0.556025"/>
<rect x="74.2293" y="23.0751" width="16.9588" height="85.6278" rx="5.28224" fill="#61724E" stroke="#394635" stroke-width="0.556025"/>
<rect x="35.5855" y="23.0751" width="13.3446" height="85.6278" rx="5.28224" fill="#7E9B76" stroke="#394635" stroke-width="0.556025"/>
<rect x="74.2293" y="23.0751" width="13.3446" height="85.6278" rx="5.28224" fill="#7E9B76" stroke="#394635" stroke-width="0.556025"/>
</svg>
