<svg width="462" height="490" viewBox="0 0 462 490" fill="none" xmlns="http://www.w3.org/2000/svg">
<path d="M462 249.743C462 382.077 358.578 489.355 231 489.355C103.422 489.355 0 382.077 0 249.743C0 117.409 103.422 10.1316 231 10.1316C358.578 10.1316 462 117.409 462 249.743Z" fill="#8A887F"/>
<ellipse cx="231.507" cy="239.612" rx="227.454" ry="239.612" fill="#E3DCD0"/>
<path d="M232.013 12.6648C349.094 12.6648 444.269 113.669 444.27 238.598C444.27 363.528 349.094 464.533 232.013 464.533C114.932 464.533 19.7569 363.528 19.7569 238.598C19.7571 113.669 114.932 12.665 232.013 12.6648Z" stroke="#353431" stroke-width="5.06579"/>
<rect x="129.684" y="84.0921" width="61.8026" height="312.053" rx="19.25" fill="#61724E" stroke="#394635" stroke-width="2.02632"/>
<rect x="270.513" y="84.0921" width="61.8026" height="312.053" rx="19.25" fill="#61724E" stroke="#394635" stroke-width="2.02632"/>
<rect x="129.684" y="84.0921" width="48.6316" height="312.053" rx="19.25" fill="#7E9B76" stroke="#394635" stroke-width="2.02632"/>
<rect x="270.513" y="84.0921" width="48.6316" height="312.053" rx="19.25" fill="#7E9B76" stroke="#394635" stroke-width="2.02632"/>
</svg>
