<svg width="127" height="135" viewBox="0 0 127 135" fill="none" xmlns="http://www.w3.org/2000/svg">
<path d="M126.776 68.5314C126.776 104.845 98.3965 134.283 63.3882 134.283C28.3799 134.283 0 104.845 0 68.5314C0 32.2179 28.3799 2.78003 63.3882 2.78003C98.3965 2.78003 126.776 32.2179 126.776 68.5314Z" fill="#8A887F"/>
<ellipse cx="63.5271" cy="65.7514" rx="62.4151" ry="65.7514" fill="#E3DCD0"/>
<path d="M63.6658 3.47534C95.7937 3.47534 121.911 31.1917 121.911 65.4734C121.911 99.7549 95.7937 127.471 63.6658 127.471C31.5381 127.471 5.42174 99.7548 5.42163 65.4734C5.42163 31.1919 31.538 3.4756 63.6658 3.47534Z" stroke="#353431" stroke-width="1.39009"/>
<path d="M39.4786 32.9481V101.334C39.4786 105.447 43.1876 108.06 46.2421 106.089L100.328 71.1006C102.972 69.391 102.972 64.8916 100.328 63.182L46.2421 28.1941C43.1876 26.2227 39.4786 28.8355 39.4786 32.9481Z" fill="#61724E" stroke="#394635" stroke-width="0.556036" stroke-miterlimit="10"/>
<path d="M39.4786 32.7578V98.7446C39.4786 102.713 43.0727 105.234 46.0326 103.332L98.4429 69.5716C101.005 67.922 101.005 63.5805 98.4429 61.9308L46.0326 28.1706C43.0727 26.2683 39.4786 28.7895 39.4786 32.7578Z" fill="#7E9B76" stroke="#394635" stroke-width="0.556036" stroke-miterlimit="10"/>
</svg>
