<svg width="285" height="178" viewBox="0 0 285 178" fill="none" xmlns="http://www.w3.org/2000/svg">
<path d="M283.82 12.8941V165.109C283.82 174.263 275.347 180.078 268.368 175.69L144.801 97.8143C138.759 94.0089 138.759 83.9942 144.801 80.1888L268.368 2.31258C275.347 -2.0754 283.82 3.74026 283.82 12.8941Z" fill="#61724E" stroke="#61724E" stroke-width="1.64058" stroke-miterlimit="10"/>
<path d="M283.82 12.4705V159.344C283.82 168.177 275.609 173.789 268.847 169.555L149.106 94.411C143.252 90.7391 143.252 81.0758 149.106 77.404L268.847 2.26023C275.609 -1.97379 283.82 3.6378 283.82 12.4705Z" fill="#CCC6BB" stroke="#61724E" stroke-width="1.64058" stroke-miterlimit="10"/>
<path d="M144.371 12.8941V165.109C144.371 174.263 135.897 180.078 128.919 175.69L5.35129 97.8143C-0.690018 94.0089 -0.690018 83.9942 5.35129 80.1888L128.919 2.31258C135.897 -2.0754 144.371 3.74026 144.371 12.8941Z" fill="#61724E" stroke="#394635" stroke-width="1.64058" stroke-miterlimit="10"/>
<path d="M144.371 12.4705V159.344C144.371 168.177 136.16 173.789 129.397 169.555L9.65721 94.411C3.80302 90.7391 3.80302 81.0758 9.65721 77.404L129.397 2.26023C136.16 -1.97379 144.371 3.6378 144.371 12.4705Z" fill="#CCC6BB" stroke="#61724E" stroke-width="1.64058" stroke-miterlimit="10"/>
</svg>
