<svg width="59" height="37" viewBox="0 0 59 37" fill="none" xmlns="http://www.w3.org/2000/svg">
<path d="M57.9349 2.63204V33.7029C57.9349 35.5715 56.2052 36.7586 54.7808 35.8629L29.5575 19.9664C28.3243 19.1896 28.3243 17.1454 29.5575 16.3686L54.7808 0.472078C56.2052 -0.42362 57.9349 0.763502 57.9349 2.63204Z" fill="#61724E" stroke="#61724E" stroke-width="0.334884" stroke-miterlimit="10"/>
<path d="M57.9349 2.54557V32.5262C57.9349 34.3292 56.2588 35.4747 54.8785 34.6104L30.4364 19.2717C29.2415 18.5222 29.2415 16.5496 30.4364 15.8001L54.8785 0.461391C56.2588 -0.40288 57.9349 0.742589 57.9349 2.54557Z" fill="#CCC6BB" stroke="#61724E" stroke-width="0.334884" stroke-miterlimit="10"/>
<path d="M29.4697 2.63204V33.7029C29.4697 35.5715 27.74 36.7586 26.3155 35.8629L1.09229 19.9664C-0.140893 19.1896 -0.140893 17.1454 1.09229 16.3686L26.3155 0.472078C27.74 -0.42362 29.4697 0.763502 29.4697 2.63204Z" fill="#61724E" stroke="#394635" stroke-width="0.334884" stroke-miterlimit="10"/>
<path d="M29.4697 2.54557V32.5262C29.4697 34.3292 27.7936 35.4747 26.4132 34.6104L1.97124 19.2717C0.77625 18.5222 0.77625 16.5496 1.97124 15.8001L26.4132 0.461391C27.7936 -0.40288 29.4697 0.742589 29.4697 2.54557Z" fill="#CCC6BB" stroke="#61724E" stroke-width="0.334884" stroke-miterlimit="10"/>
</svg>
